<?xml version="1.0" encoding="UTF-8"?>
<svg width="23px" height="22px" viewBox="0 0 23 22" version="1.1" xmlns="http://www.w3.org/2000/svg" xmlns:xlink="http://www.w3.org/1999/xlink">
    <title>BE162EF1-15EE-4B94-BA49-4BF3C4D1971D</title>
    <defs>
        <filter id="filter-1">
            <feColorMatrix in="SourceGraphic" type="matrix" values="0 0 0 0 1.000000 0 0 0 0 1.000000 0 0 0 0 1.000000 0 0 0 1.000000 0"></feColorMatrix>
        </filter>
    </defs>
    <g id="320" stroke="none" stroke-width="1" fill="none" fill-rule="evenodd">
        <g id="Icon/Black/Filter" transform="translate(-264.000000, -199.000000)" filter="url(#filter-1)">
            <g transform="translate(264.000000, 199.500000)">
                <path d="M5.5,14.5 C7.26325319,14.5 8.72196926,15.8038784 8.96456269,17.5000497 L23.0002214,17.5 L23.0002214,19 L8.85481091,19.0008388 C8.42426801,20.4461522 7.08520367,21.5 5.5,21.5 C3.91479633,21.5 2.57573199,20.4461522 2.14518909,19.0008388 L8.52651283e-14,19 L8.52651283e-14,17.5 L2.03543731,17.5000497 C2.27803074,15.8038784 3.73674681,14.5 5.5,14.5 Z M5.5,15.9 C4.34020203,15.9 3.4,16.840202 3.4,18 C3.4,19.159798 4.34020203,20.1 5.5,20.1 C6.65979797,20.1 7.6,19.159798 7.6,18 C7.6,16.840202 6.65979797,15.9 5.5,15.9 Z M16,7.5 C17.7632532,7.5 19.2219693,8.80387842 19.4645627,10.5000497 L23,10.5 L23,12 L19.3548109,12.0008388 C18.924268,13.4461522 17.5852037,14.5 16,14.5 C14.4147963,14.5 13.075732,13.4461522 12.6451891,12.0008388 L1.42108547e-14,12 L1.42108547e-14,10.5 L12.5354373,10.5000497 C12.7780307,8.80387842 14.2367468,7.5 16,7.5 Z M16,8.9 C14.840202,8.9 13.9,9.84020203 13.9,11 C13.9,12.159798 14.840202,13.1 16,13.1 C17.159798,13.1 18.1,12.159798 18.1,11 C18.1,9.84020203 17.159798,8.9 16,8.9 Z M8.5,0 C10.2632532,0 11.7219693,1.30387842 11.9645627,3.00004975 L23,3 L23,4.5 L11.8548109,4.5008388 C11.424268,5.94615223 10.0852037,7 8.5,7 C6.91479633,7 5.57573199,5.94615223 5.14518909,4.5008388 L0,4.5 L0,3 L5.03543731,3.00004975 C5.27803074,1.30387842 6.73674681,0 8.5,0 Z M8.5,1.4 C7.34020203,1.4 6.4,2.34020203 6.4,3.5 C6.4,4.65979797 7.34020203,5.6 8.5,5.6 C9.65979797,5.6 10.6,4.65979797 10.6,3.5 C10.6,2.34020203 9.65979797,1.4 8.5,1.4 Z" id="Icon-Black-Filter" fill="#000000" fill-rule="nonzero"></path>
            </g>
        </g>
    </g>
</svg>